 http://www.shotpix.com/images/55876286379910303536.jpg



Plot:Chaos breaks out in a small Maryland town after an ecological disaster occurs. 



Director: 
Barry Levinson

 Writer: 
Michael Wallach
 
Stars:
 Kristen Connolly, Jane McNeill and Christopher Denham

Genres:
 Horror | Sci-Fi | Thriller 


Country:
USA 

Language:
English 



General 
http://uk.imdb.com/title/tt1713476/
Complete name                            :The Bay 2012 R5 DVDrip Xvid Ac3 ADTRG.avi
Source                                   : DVD9 [Thanks]
Format                                   : AVI
Format/Info                              : Audio Video Interleave
File size                                : 1.18 GiB
Duration                                 : 1h 21mn
Overall bit rate                         : 2 090 Kbps
Writing application                      : VirtualDubMod 1.5.10.2 (build 2540/release)
Writing library                          : VirtualDubMod build 2540/release

Video
ID                                       : 0
Format                                   : MPEG-4 Visual
Format profile                           : Advanced Simple@L5
Format settings, BVOP                    : 2
Format settings, QPel                    : No
Format settings, GMC                     : No warppoints
Format settings, Matrix                  : Default (H.263)
Muxing mode                              : Packed bitstream
Codec ID                                 : XVID
Codec ID/Hint                            : XviD
Duration                                 : 1h 21mn
Bit rate                                 : 1 696 Kbps
Width                                    : 720 pixels
Height                                   : 368 pixels
Display aspect ratio                     : 1.957
Frame rate                               : 25.000 fps
Color space                              : YUV
Chroma subsampling                       : 4:2:0
Bit depth                                : 8 bits
Scan type                                : Progressive
Compression mode                         : Lossy
Bits/(Pixel*Frame)                       : 0.256
Stream size                              : 985 MiB (81%)
Writing library                          : XviD 64

Audio
ID                                       : 1
Format                                   : AC-3
Format/Info                              : Audio Coding 3
Mode extension                           : CM (complete main)
Codec ID                                 : 2000
Duration                                 : 1h 21mn
Bit rate mode                            : Constant
Bit rate                                 : 384 Kbps
Channel(s)                               : 6 channels
Channel positions                        : Front: L C R, Side: L R, LFE
Sampling rate                            : 48.0 KHz
Bit depth                                : 16 bits
Compression mode                         : Lossy
Delay relative to video                  : 1s 500ms
Stream size                              : 223 MiB (18%)
Alignment                                : Split accross interleaves
Interleave, duration                     : 40 ms (1.00 video frame)
Interleave, preload duration             : 500 ms


 
http://www.shotpix.com/images/06962653918537932952.jpg 
http://www.shotpix.com/images/57058866052492556475.jpg 
http://www.shotpix.com/images/00911629542873651963.jpg 
http://www.shotpix.com/images/80296974280454771857.jpg